<svg xmlns="http://www.w3.org/2000/svg" viewBox="0 0 484.64 22.19"><defs><style>.cls-1{fill:#fff;}</style></defs><title>Asset 3</title><g id="Layer_2" data-name="Layer 2"><g id="Layer_1-2" data-name="Layer 1"><path class="cls-1" d="M11,.34A.51.51,0,0,0,10.48,0h-.31a.54.54,0,0,0-.52.34L.06,21.08a.55.55,0,0,0,.53.8H3.27a.92.92,0,0,0,.89-.62l1.51-3.32h9.22l1.51,3.32a.87.87,0,0,0,.89.62H20a.55.55,0,0,0,.53-.8ZM7.18,14.52l3-6.78h.1l3.08,6.78Z"/><path class="cls-1" d="M47,11.19H41.06a.57.57,0,0,0-.59.58v2.44a.56.56,0,0,0,.59.55h2.46v2.62a9.49,9.49,0,0,1-3.66.78,7,7,0,0,1-6.94-7.06A6.92,6.92,0,0,1,44.48,5.73a.52.52,0,0,0,.8,0l1.91-2a.61.61,0,0,0,0-.87A11.7,11.7,0,0,0,39.64,0,11.06,11.06,0,0,0,28.58,11.13a11,11,0,0,0,11.06,11,15.57,15.57,0,0,0,7.64-2,.62.62,0,0,0,.25-.5V11.77A.58.58,0,0,0,47,11.19Z"/><path class="cls-1" d="M63.93,18.19H56.07V.89a.61.61,0,0,0-.59-.58H52.65a.59.59,0,0,0-.59.58V21.3a.59.59,0,0,0,.59.58H63.93a.59.59,0,0,0,.58-.58V18.77A.58.58,0,0,0,63.93,18.19Z"/><path class="cls-1" d="M76.94,0A11,11,0,0,0,65.87,11.13a11.08,11.08,0,0,0,22.16,0A11.07,11.07,0,0,0,76.94,0Zm0,18.19A7.1,7.1,0,0,1,76.94,4a7.1,7.1,0,0,1,0,14.19Z"/><path class="cls-1" d="M102.83,10.91A5.87,5.87,0,0,0,106.21,6c0-3.24-2.83-5.7-6.5-5.7h-7a.59.59,0,0,0-.59.58V21.3a.59.59,0,0,0,.59.58h7.45c3.76,0,6.72-2.49,6.72-5.95C106.83,13.1,104.46,11.43,102.83,10.91ZM96,4h3.3A2.52,2.52,0,0,1,102,6.59a2.64,2.64,0,0,1-2.66,2.78H96Zm3.74,14.28H96V12.76h3.37a3,3,0,0,1,3.14,2.68A2.75,2.75,0,0,1,99.78,18.25Z"/><path class="cls-1" d="M119.22.34A.51.51,0,0,0,118.7,0h-.31a.54.54,0,0,0-.52.34l-9.59,20.74a.55.55,0,0,0,.53.8h2.68a.92.92,0,0,0,.89-.62l1.51-3.32h9.22l1.51,3.32a.87.87,0,0,0,.89.62h2.68a.55.55,0,0,0,.53-.8ZM115.4,14.52l3-6.78h.1l3.08,6.78Z"/><path class="cls-1" d="M143.39,18.19h-7.86V.89a.61.61,0,0,0-.59-.58h-2.83a.58.58,0,0,0-.58.58V21.3a.58.58,0,0,0,.58.58h11.28a.58.58,0,0,0,.58-.58V18.77A.57.57,0,0,0,143.39,18.19Z"/><path class="cls-1" d="M173,.46a.53.53,0,0,0-.56-.46h-.49a.52.52,0,0,0-.52.31L164.6,14.85h-.1L157.72.31A.54.54,0,0,0,157.2,0h-.49a.53.53,0,0,0-.56.46l-3.67,20.71a.57.57,0,0,0,.59.71h2.77a.6.6,0,0,0,.56-.46l1.78-11.68h.1l5.45,12.11a.58.58,0,0,0,.53.34h.55a.54.54,0,0,0,.53-.34l5.39-12.11h.09l1.82,11.68a.68.68,0,0,0,.59.46H176a.54.54,0,0,0,.56-.71Z"/><path class="cls-1" d="M189,.34a.53.53,0,0,0-.53-.34h-.31a.55.55,0,0,0-.52.34L178,21.08a.55.55,0,0,0,.53.8h2.68a.92.92,0,0,0,.89-.62l1.51-3.32h9.22l1.51,3.32a.88.88,0,0,0,.89.62h2.69a.54.54,0,0,0,.52-.8Zm-3.83,14.18,3-6.78h.09l3.08,6.78Z"/><path class="cls-1" d="M217.36,6.93A6.66,6.66,0,0,0,210.65.31h-8.82a.58.58,0,0,0-.58.58V21.3a.58.58,0,0,0,.58.58h2.83a.61.61,0,0,0,.59-.58V13.44h3.42l4.11,8.16a.51.51,0,0,0,.49.28h3.23A.58.58,0,0,0,217,21l-4.22-7.83A6.79,6.79,0,0,0,217.36,6.93Zm-7.05,3.21h-5V4h5a3.07,3.07,0,0,1,3.05,3A3.14,3.14,0,0,1,210.31,10.14Z"/><path class="cls-1" d="M229.85,10.48l8-9.06A.66.66,0,0,0,237.4.31h-3.08a.72.72,0,0,0-.59.31L226,9.37V1.05a.75.75,0,0,0-.74-.74h-2.7a.73.73,0,0,0-.74.74V21.14a.73.73,0,0,0,.74.74h2.7a.75.75,0,0,0,.74-.74v-9.4l8,9.93a.66.66,0,0,0,.55.21h3.36a.68.68,0,0,0,.56-1.08Z"/><path class="cls-1" d="M255,.31H242.46a.59.59,0,0,0-.59.58V21.3a.59.59,0,0,0,.59.58H255a.58.58,0,0,0,.58-.58V18.77a.57.57,0,0,0-.58-.58h-9.12v-5.4h7.61a.58.58,0,0,0,.58-.59V9.65a.6.6,0,0,0-.58-.59h-7.61V4H255a.57.57,0,0,0,.58-.58V.89A.58.58,0,0,0,255,.31Z"/><path class="cls-1" d="M271.64.31H258.18a.59.59,0,0,0-.59.58V3.42a.58.58,0,0,0,.59.58h4.71V21.3a.61.61,0,0,0,.59.58h2.86a.61.61,0,0,0,.59-.58V4h4.71a.58.58,0,0,0,.59-.58V.89A.59.59,0,0,0,271.64.31Z"/><path class="cls-1" d="M276,.31h2.86a.59.59,0,0,1,.59.59V21.3a.59.59,0,0,1-.59.59H276a.58.58,0,0,1-.58-.58V.89A.59.59,0,0,1,276,.31Z"/><path class="cls-1" d="M302.71.31h-2.83a.58.58,0,0,0-.58.58V13.62h0L286.44,0h-.77a.57.57,0,0,0-.58.55V21.3a.6.6,0,0,0,.58.58h2.8a.59.59,0,0,0,.59-.58V8h0L302,22.19h.74a.59.59,0,0,0,.59-.56V.89A.61.61,0,0,0,302.71.31Z"/><path class="cls-1" d="M325.77,11.19h-5.92a.57.57,0,0,0-.58.58v2.44a.56.56,0,0,0,.58.55h2.47v2.62a9.55,9.55,0,0,1-3.67.78,7,7,0,0,1-6.94-7.06,6.93,6.93,0,0,1,11.57-5.37.52.52,0,0,0,.8,0l1.91-2a.61.61,0,0,0,0-.87A11.65,11.65,0,0,0,318.44,0a11.08,11.08,0,0,0,0,22.16,15.61,15.61,0,0,0,7.64-2,.62.62,0,0,0,.25-.5V11.77A.58.58,0,0,0,325.77,11.19Z"/><path class="cls-1" d="M355.3.31h-2.83a.59.59,0,0,0-.59.58V13.62h0L339,0h-.77a.58.58,0,0,0-.59.55V21.3a.61.61,0,0,0,.59.58h2.8a.58.58,0,0,0,.58-.58V8h0l12.89,14.15h.74a.58.58,0,0,0,.58-.56V.89A.6.6,0,0,0,355.3.31Z"/><path class="cls-1" d="M374.62.31H362.08a.58.58,0,0,0-.58.58V21.3a.58.58,0,0,0,.58.58h12.54a.59.59,0,0,0,.59-.58V18.77a.58.58,0,0,0-.59-.58H365.5v-5.4h7.61a.59.59,0,0,0,.59-.59V9.65a.61.61,0,0,0-.59-.59H365.5V4h9.12a.58.58,0,0,0,.59-.58V.89A.59.59,0,0,0,374.62.31Z"/><path class="cls-1" d="M391.27.31H377.8a.58.58,0,0,0-.58.58V3.42a.57.57,0,0,0,.58.58h4.72V21.3a.61.61,0,0,0,.58.58H386a.6.6,0,0,0,.58-.58V4h4.72a.57.57,0,0,0,.58-.58V.89A.58.58,0,0,0,391.27.31Z"/><path class="cls-1" d="M418.52.31h-2.84a.62.62,0,0,0-.55.43L412,13h-.12L406.93.34A.5.5,0,0,0,406.4,0h-.55a.48.48,0,0,0-.52.34L400.43,13h-.13L397.1.74a.63.63,0,0,0-.56-.43h-2.83a.54.54,0,0,0-.56.74L399,21.76a.6.6,0,0,0,.55.43h.5a.53.53,0,0,0,.52-.34l5.45-14h.16l5.52,14a.52.52,0,0,0,.52.34h.49a.6.6,0,0,0,.56-.43l5.82-20.71A.53.53,0,0,0,418.52.31Z"/><path class="cls-1" d="M432.14,0a11,11,0,0,0-11.06,11.13,11.08,11.08,0,0,0,22.16,0A11.08,11.08,0,0,0,432.14,0Zm0,18.19a7.1,7.1,0,0,1,0-14.19,7.1,7.1,0,0,1,0,14.19Z"/><path class="cls-1" d="M463.4,6.93A6.67,6.67,0,0,0,456.68.31h-8.82a.59.59,0,0,0-.58.58V21.3a.59.59,0,0,0,.58.58h2.84a.61.61,0,0,0,.58-.58V13.44h3.42l4.11,8.16a.51.51,0,0,0,.49.28h3.23a.58.58,0,0,0,.53-.89l-4.22-7.83A6.8,6.8,0,0,0,463.4,6.93Zm-7.06,3.21h-5V4h5a3.07,3.07,0,0,1,3.05,3A3.14,3.14,0,0,1,456.34,10.14Z"/><path class="cls-1" d="M484.51,20.8l-8.63-10.32,8-9.06a.65.65,0,0,0-.49-1.11h-3.08a.74.74,0,0,0-.59.31L472,9.37V1.05a.74.74,0,0,0-.73-.74h-2.71a.73.73,0,0,0-.74.74V21.14a.73.73,0,0,0,.74.74h2.71a.74.74,0,0,0,.73-.74v-9.4L480,21.67a.68.68,0,0,0,.55.21H484A.68.68,0,0,0,484.51,20.8Z"/></g></g></svg>