<svg xmlns="http://www.w3.org/2000/svg" viewBox="0 0 359.57 145.54"><defs><style>.cls-1{fill:#fff;}</style></defs><title>Asset 1</title><g id="Layer_2" data-name="Layer 2"><g id="Layer_1-2" data-name="Layer 1"><path class="cls-1" d="M114.5,52.5V2.2A1.43,1.43,0,0,1,115.94.76H147.4a1.44,1.44,0,0,1,1.44,1.44v8.28a1.44,1.44,0,0,1-1.44,1.44H126.34v9.43h17.33a1.51,1.51,0,0,1,1.45,1.45v8.27a1.45,1.45,0,0,1-1.45,1.45H126.34V42.78H147.4a1.45,1.45,0,0,1,1.44,1.45V52.5A1.45,1.45,0,0,1,147.4,54H115.94A1.44,1.44,0,0,1,114.5,52.5Z"/><path class="cls-1" d="M219.9,52,196.12.83a1.55,1.55,0,0,0-1.3-.83h-.76a1.55,1.55,0,0,0-1.29.83L169,52a1.35,1.35,0,0,0,1.3,2h8.36a2.82,2.82,0,0,0,2.73-1.83L184.11,46h20.67l2.74,6c.68,1.44,1.29,1.9,2.66,1.9h8.43A1.34,1.34,0,0,0,219.9,52ZM188.67,35.72l5.7-12.54h.07l5.78,12.54Z"/><path class="cls-1" d="M255.63,32.52c6.61-2.66,11.24-8.28,11.24-15.32A16.52,16.52,0,0,0,250.31.76H227.58a1.44,1.44,0,0,0-1.44,1.44V52.51A1.44,1.44,0,0,0,227.58,54h9a1.49,1.49,0,0,0,1.44-1.44V33.2h5.25l10.11,20.07a1.42,1.42,0,0,0,1.22.68h10.1a1.44,1.44,0,0,0,1.29-2.2Zm-6.31-9H238.06V11.62h11.26a5.84,5.84,0,0,1,5.78,5.81A6.12,6.12,0,0,1,249.32,23.56Z"/><path class="cls-1" d="M52,85.62V143a1.7,1.7,0,0,1-1.65,1.64H40.07A1.65,1.65,0,0,1,38.42,143V120.22H13.61V143A1.65,1.65,0,0,1,12,144.67H1.65A1.7,1.7,0,0,1,0,143V85.62A1.7,1.7,0,0,1,1.65,84H12a1.65,1.65,0,0,1,1.65,1.64v21.86H38.42V85.62A1.65,1.65,0,0,1,40.07,84H50.38A1.7,1.7,0,0,1,52,85.62Z"/><path class="cls-1" d="M293.31,85.62v9.45a1.65,1.65,0,0,1-1.65,1.64h-12.4V143a1.7,1.7,0,0,1-1.65,1.64h-10.4a1.7,1.7,0,0,1-1.65-1.64V96.71h-12.4a1.65,1.65,0,0,1-1.65-1.64V85.62A1.65,1.65,0,0,1,253.16,84h38.5A1.65,1.65,0,0,1,293.31,85.62Z"/><path class="cls-1" d="M275.54,52.5V2.2A1.45,1.45,0,0,1,277,.75h31.46a1.44,1.44,0,0,1,1.44,1.45v8.27a1.44,1.44,0,0,1-1.44,1.45H287.39v9.43h17.33a1.49,1.49,0,0,1,1.44,1.44v8.28a1.43,1.43,0,0,1-1.44,1.44H287.39V42.78h21.05a1.44,1.44,0,0,1,1.44,1.45V52.5a1.43,1.43,0,0,1-1.44,1.44H277A1.44,1.44,0,0,1,275.54,52.5Z"/><path class="cls-1" d="M59.16,54.71a1.46,1.46,0,0,1-1.36-1.07L43.43,2.58A1.33,1.33,0,0,1,44.8.76h8.89a1.56,1.56,0,0,1,1.37,1.06L61.6,27.58h.3L73.68.83A1.45,1.45,0,0,1,75,0h1.37a1.29,1.29,0,0,1,1.29.83L89.41,27.58h.31L96.25,1.82A1.56,1.56,0,0,1,97.62.76h8.89a1.32,1.32,0,0,1,1.37,1.82L93.52,53.64a1.47,1.47,0,0,1-1.37,1.07H90.93a1.54,1.54,0,0,1-1.29-.84L75.73,22.8H75.5L61.67,53.87a1.54,1.54,0,0,1-1.29.84Z"/><path class="cls-1" d="M195.3,85.62V143a1.7,1.7,0,0,1-1.64,1.64h-10.4a1.7,1.7,0,0,1-1.65-1.64V85.62A1.7,1.7,0,0,1,183.26,84h10.4A1.7,1.7,0,0,1,195.3,85.62Z"/><path class="cls-1" d="M117.25,142.42,90.11,84.06a1.76,1.76,0,0,0-1.48-1h-.86a1.76,1.76,0,0,0-1.48,1L59.15,142.42a1.52,1.52,0,0,0,1.47,2.25h9.54a3.23,3.23,0,0,0,3.12-2.08l3.12-6.94H100l3.13,6.86c.78,1.64,1.47,2.16,3,2.16h9.63A1.53,1.53,0,0,0,117.25,142.42ZM81.61,123.87l6.5-14.31h.09l6.59,14.31Z"/><path class="cls-1" d="M158,120.22c7.54-3,12.83-9.45,12.83-17.48A18.86,18.86,0,0,0,152,84H126a1.64,1.64,0,0,0-1.65,1.64V143a1.64,1.64,0,0,0,1.65,1.64h10.31A1.7,1.7,0,0,0,138,143V121h6l11.54,22.9a1.62,1.62,0,0,0,1.39.77h11.53a1.63,1.63,0,0,0,1.47-2.5ZM150.82,110H138V96.37h12.84a6.66,6.66,0,0,1,6.59,6.64C157.41,106.67,154.38,110,150.82,110Z"/><path class="cls-1" d="M247.17,127.6c0,8.93-7.72,17.94-20.47,17.94-11.27,0-17.51-4.68-19.51-6.67-.86-.87-1.12-1.21-.43-2.43l4.07-7.19a2.23,2.23,0,0,1,2.95-.52c.35.17,6.59,4.77,12.32,4.77,3.47,0,6-2.17,6-5.21,0-3.64-3-6.42-9-8.76-7.45-3-16.81-8.76-16.81-19.17,0-8.59,6.67-17.25,20-17.25,9,0,15.95,4.59,18.55,6.5,1,.6.87,2.16.52,2.77L241,99.06c-.6,1-2.16,1.73-2.94,1.12-.78-.43-7.11-5.2-12.41-5.2-3.12,0-5.47,2.08-5.47,4.42,0,3.21,2.61,5.64,9.47,8.42S247.17,115.8,247.17,127.6Z"/><path class="cls-1" d="M328.35,83.11a31.22,31.22,0,1,0,31.22,31.3A31.07,31.07,0,0,0,328.35,83.11Zm0,48.57a17.36,17.36,0,1,1,17.35-17.27A17.37,17.37,0,0,1,328.35,131.68Z"/></g></g></svg>