<?xml version="1.0" encoding="UTF-8" standalone="no"?><!DOCTYPE svg PUBLIC "-//W3C//DTD SVG 1.1//EN" "http://www.w3.org/Graphics/SVG/1.1/DTD/svg11.dtd"><svg width="100%" height="100%" viewBox="0 0 83 133" version="1.1" xmlns="http://www.w3.org/2000/svg" xmlns:xlink="http://www.w3.org/1999/xlink" xml:space="preserve" xmlns:serif="http://www.serif.com/" style="fill-rule:evenodd;clip-rule:evenodd;stroke-linejoin:round;stroke-miterlimit:2;"><path d="M82.194,27.822l0,77.044c0,15.023 -12.169,27.228 -27.228,27.228l0,-43.893c0,-4.568 -1.57,-8.279 -3.533,-8.279l-20.126,0c-1.963,0 -3.533,3.711 -3.533,8.279l0,43.893c-15.024,0 -27.228,-12.169 -27.228,-27.228l0,-77.044c0,-15.024 12.169,-27.228 27.228,-27.228l0,43.893c0,4.567 1.57,8.279 3.533,8.279l20.126,0c1.963,0 3.533,-3.712 3.533,-8.279l0,-43.893c15.023,0 27.228,12.204 27.228,27.228Z" style="fill:#fff;fill-rule:nonzero;"/></svg>