<svg xmlns="http://www.w3.org/2000/svg" viewBox="0 0 361.57 147.54"><defs><style>.cls-1{fill:#fff;}.cls-2{fill:none;stroke:#fff;stroke-miterlimit:10;stroke-width:2px;}</style></defs><title>Asset 2</title><g id="Layer_2" data-name="Layer 2"><g id="Layer_1-2" data-name="Layer 1"><path class="cls-1" d="M148.4,56H116.94a2.45,2.45,0,0,1-2.44-2.45V3.2A2.44,2.44,0,0,1,116.94.76H148.4a2.44,2.44,0,0,1,2.44,2.44v8.28a2.44,2.44,0,0,1-2.44,2.44H128.34v7.43h16.33a2.51,2.51,0,0,1,2.45,2.45v8.27a2.45,2.45,0,0,1-2.45,2.45H128.34v8.26H148.4a2.45,2.45,0,0,1,2.44,2.45V53.5A2.45,2.45,0,0,1,148.4,56ZM116.94,2.76a.43.43,0,0,0-.44.44V53.5a.44.44,0,0,0,.44.45H148.4a.45.45,0,0,0,.44-.45V45.23a.45.45,0,0,0-.44-.45H126.34V32.52h18.33a.45.45,0,0,0,.45-.45V23.8a.51.51,0,0,0-.45-.45H126.34V11.92H148.4a.44.44,0,0,0,.44-.44V3.2a.44.44,0,0,0-.44-.44Z"/><path class="cls-2" d="M220.9,53,197.12,1.83a1.55,1.55,0,0,0-1.3-.83h-.76a1.55,1.55,0,0,0-1.29.83L170,53a1.35,1.35,0,0,0,1.3,2h8.36a2.82,2.82,0,0,0,2.73-1.83L185.11,47h20.67l2.74,6c.68,1.44,1.29,1.9,2.66,1.9h8.43A1.34,1.34,0,0,0,220.9,53ZM189.67,36.72l5.7-12.54h.07l5.78,12.54Z"/><path class="cls-2" d="M256.63,33.52c6.61-2.66,11.24-8.28,11.24-15.32A16.52,16.52,0,0,0,251.31,1.76H228.58a1.44,1.44,0,0,0-1.44,1.44V53.51A1.44,1.44,0,0,0,228.58,55h9a1.49,1.49,0,0,0,1.44-1.44V34.2h5.25l10.11,20.07a1.42,1.42,0,0,0,1.22.68h10.1a1.44,1.44,0,0,0,1.29-2.2Zm-6.31-9H239.06V12.62h11.26a5.84,5.84,0,0,1,5.78,5.81A6.12,6.12,0,0,1,250.32,24.56Z"/><path class="cls-1" d="M51.38,146.67H41.07A2.65,2.65,0,0,1,38.42,144V122.22H15.61V144A2.65,2.65,0,0,1,13,146.67H2.65A2.71,2.71,0,0,1,0,144V86.62A2.71,2.71,0,0,1,2.65,84H13a2.65,2.65,0,0,1,2.65,2.64v20.86H38.42V86.62A2.65,2.65,0,0,1,41.07,84H51.38A2.71,2.71,0,0,1,54,86.62V144A2.71,2.71,0,0,1,51.38,146.67ZM13.61,120.22H40.42V144a.65.65,0,0,0,.65.64H51.38A.71.71,0,0,0,52,144V86.62a.71.71,0,0,0-.65-.64H41.07a.65.65,0,0,0-.65.64v22.86H13.61V86.62A.65.65,0,0,0,13,86H2.65a.71.71,0,0,0-.65.64V144a.71.71,0,0,0,.65.64H13a.65.65,0,0,0,.65-.64Z"/><path class="cls-1" d="M278.61,146.67h-10.4a2.71,2.71,0,0,1-2.65-2.64V98.71h-11.4a2.65,2.65,0,0,1-2.65-2.64V86.62A2.65,2.65,0,0,1,254.16,84h38.5a2.65,2.65,0,0,1,2.65,2.64v9.45a2.65,2.65,0,0,1-2.65,2.64h-11.4V144A2.71,2.71,0,0,1,278.61,146.67ZM254.16,86a.65.65,0,0,0-.65.64v9.45a.65.65,0,0,0,.65.64h13.4V144a.71.71,0,0,0,.65.64h10.4a.71.71,0,0,0,.65-.64V96.71h13.4a.65.65,0,0,0,.65-.64V86.62a.65.65,0,0,0-.65-.64Z"/><path class="cls-1" d="M309.44,55.94H278a2.44,2.44,0,0,1-2.44-2.44V3.2A2.45,2.45,0,0,1,278,.75h31.46a2.45,2.45,0,0,1,2.44,2.45v8.27a2.45,2.45,0,0,1-2.44,2.45H289.39v7.43h16.33a2.48,2.48,0,0,1,2.44,2.44v8.28a2.44,2.44,0,0,1-2.44,2.44H289.39v8.27h20.05a2.45,2.45,0,0,1,2.44,2.45V53.5A2.44,2.44,0,0,1,309.44,55.94ZM278,2.75a.45.45,0,0,0-.44.45V53.5a.44.44,0,0,0,.44.44h31.46a.43.43,0,0,0,.44-.44V45.23a.44.44,0,0,0-.44-.45H287.39V32.51h18.33a.43.43,0,0,0,.44-.44V23.79a.49.49,0,0,0-.44-.44H287.39V11.92h22.05a.44.44,0,0,0,.44-.45V3.2a.44.44,0,0,0-.44-.45Z"/><path class="cls-1" d="M93.15,56.71H91.93a2.54,2.54,0,0,1-2.18-1.39L76.62,26l-13,29.28a2.55,2.55,0,0,1-2.2,1.43H60.16a2.46,2.46,0,0,1-2.33-1.83l-14.36-51a2.44,2.44,0,0,1,.33-2.17,2.44,2.44,0,0,1,2-.92h8.89A2.55,2.55,0,0,1,57,2.55L63,26,73.77,1.43A2.47,2.47,0,0,1,76,0h1.37a2.3,2.3,0,0,1,2.24,1.51L90.35,26l5.93-23.4A2.56,2.56,0,0,1,98.62.76h8.89a2.43,2.43,0,0,1,2,.91,2.43,2.43,0,0,1,.33,2.18L95.48,54.91A2.44,2.44,0,0,1,93.15,56.71ZM75.85,22.8h1.53L91.55,54.46a.56.56,0,0,0,.38.25h1.22a.47.47,0,0,0,.4-.32L107.92,3.31c.06-.23,0-.37,0-.43s-.17-.12-.4-.12H98.62a.62.62,0,0,0-.41.33L91.5,29.58H89.76L77.71,2.23A.34.34,0,0,0,77.34,2H76a.48.48,0,0,0-.4.29l-12,27.29H61.82L55.09,3.07a.61.61,0,0,0-.4-.31H45.8a.54.54,0,0,0-.4.12.55.55,0,0,0,0,.43L59.76,54.37a.49.49,0,0,0,.4.34h1.22a.57.57,0,0,0,.4-.29Z"/><path class="cls-1" d="M194.66,146.67h-10.4a2.71,2.71,0,0,1-2.65-2.64V86.62A2.71,2.71,0,0,1,184.26,84h10.4a2.7,2.7,0,0,1,2.64,2.64V144A2.7,2.7,0,0,1,194.66,146.67ZM184.26,86a.71.71,0,0,0-.65.64V144a.71.71,0,0,0,.65.64h10.4a.71.71,0,0,0,.64-.64V86.62a.71.71,0,0,0-.64-.64Z"/><path class="cls-1" d="M116.78,146.67h-9.63c-2.2,0-3.11-1-3.93-2.73l-2.87-6.29H78.05L75.19,144a4.18,4.18,0,0,1-4,2.67H61.62A2.52,2.52,0,0,1,59.24,143L86.38,84.64a2.78,2.78,0,0,1,2.39-1.53h.86A2.76,2.76,0,0,1,92,84.61L119.16,143a2.52,2.52,0,0,1-2.38,3.67Zm-40-11h24.88l3.4,7.45c.66,1.37,1,1.57,2.12,1.57h9.63a.68.68,0,0,0,.58-.24.62.62,0,0,0,0-.59L90.2,85.48a.77.77,0,0,0-.57-.37h-.86a.8.8,0,0,0-.59.4L61.06,143.84a.59.59,0,0,0,0,.59.68.68,0,0,0,.58.24h9.54a2.23,2.23,0,0,0,2.2-1.46Zm20.6-9.78H81.06l7.41-16.31h1.28l.36.58Zm-13.19-2H94.23l-5.07-11Z"/><path class="cls-2" d="M159,121.22c7.54-3,12.83-9.45,12.83-17.48A18.86,18.86,0,0,0,153,85H127a1.64,1.64,0,0,0-1.65,1.64V144a1.64,1.64,0,0,0,1.65,1.64h10.31A1.7,1.7,0,0,0,139,144V122h6l11.54,22.9a1.62,1.62,0,0,0,1.39.77h11.53a1.63,1.63,0,0,0,1.47-2.5ZM151.82,111H139V97.37h12.84a6.66,6.66,0,0,1,6.59,6.64C158.41,107.67,155.38,111,151.82,111Z"/><path class="cls-1" d="M227.7,147.54c-12.26,0-18.57-5.33-20.21-7-1-1-1.61-1.84-.6-3.63l4.07-7.19a2.83,2.83,0,0,1,1.9-1.3,3.42,3.42,0,0,1,2.48.44l.32.21c5.5,3.63,9.26,4.39,11.44,4.39,2.94,0,5-1.73,5-4.21,0-3.09-2.64-5.58-8.32-7.83-8-3.15-17.44-9.2-17.44-20.1,0-9.07,7.22-18.25,21-18.25,8.69,0,15.68,4.16,19.1,6.66,1.58,1,1.39,3.14.84,4.11l-4.46,6.73a4.06,4.06,0,0,1-2.6,1.74,2.18,2.18,0,0,1-1.72-.34,7,7,0,0,1-.62-.4c-1.73-1.14-7-4.63-11.24-4.63-2.42,0-4.47,1.57-4.47,3.42,0,2.78,2.56,4.95,8.85,7.49,4.48,1.79,18.13,7.22,18.13,20.71C249.17,137.91,241.14,147.54,227.7,147.54Zm-14.16-17.15a1.43,1.43,0,0,0-.29,0,.77.77,0,0,0-.57.36l-4.05,7.15a1.46,1.46,0,0,0-.26.62,3.67,3.67,0,0,0,.53.62c1.07,1.06,7,6.37,18.8,6.37,12.19,0,19.47-8.61,19.47-16.94,0-10.88-9.63-16-16.88-18.85s-10.1-5.62-10.1-9.35c0-3,2.9-5.42,6.47-5.42,4.87,0,10.3,3.61,12.35,5,.26.18.45.3.54.35l.14.09a1.9,1.9,0,0,0,1.47-.86l4.44-6.7c.1-.19.24-1.11-.19-1.35l-.09-.06c-3.21-2.36-9.81-6.31-18-6.31-13.07,0-19,8.42-19,16.25,0,9.78,8.8,15.32,16.18,18.24,6.53,2.59,9.58,5.67,9.58,9.69,0,3.6-2.94,6.21-7,6.21-3.57,0-7.79-1.59-12.54-4.72a1.5,1.5,0,0,0-.26-.17l-.1-.07A1.43,1.43,0,0,0,213.54,130.39Z"/><path class="cls-2" d="M329.35,84.11a31.22,31.22,0,1,0,31.22,31.3A31.07,31.07,0,0,0,329.35,84.11Zm0,48.57a17.36,17.36,0,1,1,17.35-17.27A17.37,17.37,0,0,1,329.35,132.68Z"/></g></g></svg>