<svg xmlns="http://www.w3.org/2000/svg" viewBox="0 0 72.67 72.71"><defs><style>.cls-1{fill:#231f20;}</style></defs><title>LogoCorner_1</title><g id="Layer_2" data-name="Layer 2"><g id="Layer_1-2" data-name="Layer 1"><path class="cls-1" d="M2.29,17,0,14.73v1.7l1,1-1,1v1.69l2.29-2.3a.56.56,0,0,0,.18-.42A.6.6,0,0,0,2.29,17Zm7.09,1c-.25-.28-.5-.56-.79-.85,0,0-.18-.19-.21-.21a1.4,1.4,0,0,0-.14-.16A1.65,1.65,0,0,1,8,16.51l0-.05H8l-.23-.23s-.06-.08-.09-.09l-.46-.46,0,0,0,0-.24-.23L6.52,15l-.27-.24a2.88,2.88,0,0,0-.31-.3c-.22-.2-.42-.4-.62-.6l-.45-.43a1,1,0,0,1-.15-.13L4.41,13l-.14-.14A3.21,3.21,0,0,0,4,12.61l-.28-.27-.57-.55-.26-.23a2.22,2.22,0,0,0-.23-.22l-.08-.07-.21-.2L2.27,11l-.09-.08-.12-.13-.24-.24a2.85,2.85,0,0,0-.32-.27A3.3,3.3,0,0,0,1.2,10L.93,9.74s0,0,0,0L.81,9.62.64,9.46C.45,9.28.26,9.11.12,9L0,8.88v1.63l.07.08.08.07c.05.05.11.09.2.19l.35.33.1.07a1.54,1.54,0,0,1,.19.17l.05.05.17.17.12.12a.38.38,0,0,0,.09.09l.11.1c.11.1.19.19.28.26l.24.22c.09.09.19.17.26.23s.37.36.56.55l.31.29.23.22.19.19.27.24a2,2,0,0,0,.21.2l.4.38.67.64.26.24.1.1a.34.34,0,0,0,.09.08l.12.12c.1.09.19.19.32.33l.27.25a0,0,0,0,0,0,0L6.8,17l.08.08.22.23c.09.11.19.21.35.37l.18.19,0,0,0,0,.06.06.47.51a30.47,30.47,0,0,0-3.85,2.72l-.3.25-.14.13A17.65,17.65,0,0,0,0,26.22v1.7l1.6-2a17.58,17.58,0,0,1,3.1-3.42l.15-.14.27-.22a30.4,30.4,0,0,1,4.26-2.95.59.59,0,0,0,.27-.35A.84.84,0,0,0,9.38,18Z"/><path class="cls-1" d="M38.46,11.27C26.79,3.9,14.15,0,1.92,0a.59.59,0,0,0-.59.6c0,4.82,10.14,12.76,13.23,15.07a1.77,1.77,0,0,0,1.07.33,1.79,1.79,0,0,0,.57-.09l.13-.05.68-.25.61-.22.31-.11.3-.09.29-.1.32-.11.4-.13.37-.12a3.78,3.78,0,0,0,.6-.17l.13,0,.15,0,.28-.07.11,0a47.54,47.54,0,0,1,17.21-2,.6.6,0,0,0,.62-.41A.59.59,0,0,0,38.46,11.27ZM35,11a52.47,52.47,0,0,0-14.42,2.2h0l-.16,0-.16.05-.13,0-.21.06c-.15.05-.3.1-.54.16l-.85.27-.3.1-.3.1-.31.1-.29.1-.65.23-.66.24-.14.06a.68.68,0,0,1-.51-.07c-5.55-4.14-12-10-12.7-13.5,11.09.13,22.5,3.51,33.2,9.83Z"/><path class="cls-1" d="M62.31,35.68A73,73,0,0,0,50.15,20.41C45.7,17.15,39.22,16.3,31.4,17.94a.61.61,0,0,0-.44.4.6.6,0,0,0,.11.59C36,24.58,46.5,34.39,61.71,36.58h.09a.61.61,0,0,0,.49-.26A.59.59,0,0,0,62.31,35.68ZM32.67,18.92c7-1.3,12.79-.46,16.71,2.41A71.92,71.92,0,0,1,60.61,35.19C47.13,32.82,37.58,24.35,32.67,18.92Z"/><path class="cls-1" d="M68,47.49a.61.61,0,0,0-.91-.28,20,20,0,0,0-4.86,5.23,33.07,33.07,0,0,0-4.2,9.3,45.77,45.77,0,0,0-1.67,11h1.2a44.15,44.15,0,0,1,1.63-10.65,31.89,31.89,0,0,1,4-9,19.4,19.4,0,0,1,3.93-4.43,71.9,71.9,0,0,1,4.32,24h1.19A72.63,72.63,0,0,0,68,47.49Z"/><path class="cls-1" d="M62.66,42.29A53.31,53.31,0,0,1,35.15,30.48,63.24,63.24,0,0,1,24.94,20.2a.59.59,0,0,0-.67-.19c-.87.31-1.72.63-2.57,1l-2.14.86a57.9,57.9,0,0,0-7,3.16c-.12.09-3,2.19-2.88,4.69A4.1,4.1,0,0,0,12,33l.12.06C21.05,36,27.3,44.1,27.3,52.69v20h1.2v-20c0-9.08-6.55-17.61-15.95-20.77a2.94,2.94,0,0,1-1.69-2.26v-.09c0-1.8,2.33-3.53,2.33-3.54A58.39,58.39,0,0,1,20,23c.74-.29,1.47-.58,2.15-.87s1.4-.56,2.11-.82A64.55,64.55,0,0,0,34.39,31.42a55,55,0,0,0,26.78,11.9,28.5,28.5,0,0,0-4.55,5.34c-4.25,6.38-6.75,14.89-7,23.92a.57.57,0,0,1,0,.13H50.8v0c.27-8.85,2.69-17.14,6.82-23.34a26.07,26.07,0,0,1,5.36-6,.6.6,0,0,0-.32-1.07Z"/><path class="cls-1" d="M6.62,37.56a.6.6,0,0,0-.6.6V61.62c0,2.47-.85,3.82-1.29,3.82H0v1.2H4.73c1.64,0,2.49-2.53,2.49-5V38.77A14,14,0,0,1,20.57,52.71v20h1.2v-20A15.17,15.17,0,0,0,6.62,37.56Z"/></g></g></svg>