<svg xmlns="http://www.w3.org/2000/svg" viewBox="0 0 523.09 145.4"><defs><style>.cls-1{fill:#bc2b2e;}.cls-2{fill:#1da2a9;}.cls-3{fill:#353535;}</style></defs><title>LogoTextNew</title><g id="Layer_2" data-name="Layer 2"><g id="Layer_1-2" data-name="Layer 1"><path class="cls-1" d="M496.05,24.32c-14.93,0-27,12.57-27,28.07s12.11,28.08,27,28.08,27-12.57,27-28.08S511,24.32,496.05,24.32Zm0,41.87a13.8,13.8,0,1,1,13.29-13.8A13.55,13.55,0,0,1,496.05,66.19Z"/><path class="cls-2" d="M70.13,0C57.22,0,44.57,4.44,33.91,11.18a48.33,48.33,0,0,1,17.44,2l0,0c.1,0,.19.06.29.07l.34.1a4.26,4.26,0,0,0,.54.15l.84.27L54,14l.57.19c.44.15.87.32,1.31.48l.14.05h0a1.23,1.23,0,0,0,1.07-.15C59.53,12.8,70.13,4.6,70.13,0Z"/><path class="cls-1" d="M40.55,17.93c-6.69-1.41-13.41-1.2-18.27,2.36a73,73,0,0,0-12,15.09C25.37,33.21,35.84,23.33,40.55,17.93Z"/><path class="cls-3" d="M15.14,72.69c0,.15,0,.3,0,.46a45.34,45.34,0,0,1-1.66,11,32.8,32.8,0,0,1-4.12,9.14,19.52,19.52,0,0,1-4.72,5.07,73.17,73.17,0,0,1,0-51.23,19.57,19.57,0,0,1,4.72,5.08,32.87,32.87,0,0,1,4.12,9.13,45.35,45.35,0,0,1,1.66,11C15.14,72.38,15.14,72.54,15.14,72.69Z"/><path class="cls-2" d="M70.13,145.4c-12.91,0-25.56-4.45-36.22-11.18a48.55,48.55,0,0,0,17.44-2l0,0,.29-.08c.11,0,.23,0,.34-.09a3.06,3.06,0,0,1,.54-.15c.28-.1.55-.18.84-.27s.42-.14.63-.21l.57-.19c.44-.15.87-.33,1.31-.48l.14-.06h0a1.27,1.27,0,0,1,1.07.16C59.53,132.6,70.13,140.8,70.13,145.4Z"/><path class="cls-1" d="M40.55,127.47c-6.69,1.41-13.41,1.2-18.27-2.37a72.65,72.65,0,0,1-12-15.08C25.37,112.17,35.84,122.07,40.55,127.47Z"/><path class="cls-2" d="M59.19,120.47a81.64,81.64,0,0,1-9,4c-.82.34-1.67.66-2.53,1A64.76,64.76,0,0,0,37.31,115,53.89,53.89,0,0,0,9.48,103.09,27.17,27.17,0,0,0,15,97c4.2-6.3,6.66-14.69,6.93-23.65,0-.23,0-.44,0-.65s0-.44,0-.65C21.61,63.1,19.17,54.7,15,48.39a27.17,27.17,0,0,0-5.47-6.1A53.72,53.72,0,0,0,37.31,30.35,65.6,65.6,0,0,0,47.61,20c.86.31,1.7.63,2.53,1a85.08,85.08,0,0,1,9,4s5.51,4,.59,7c-8.49,2.82-15.61,10.82-15.61,20.22V93.27c0,9.4,7.14,17.41,15.61,20.22C64.7,116.48,59.19,120.47,59.19,120.47Z"/><path class="cls-1" d="M78.2,124.34c-.13-.11-.28-.25-.42-.36-3-2.65-5-5.67-5-8.85-.1,3.18-2,6.2-5.06,8.85-.13.11-.28.25-.42.36a30.26,30.26,0,0,1-4.35,3l.25.27c.25.27.5.55.78.84,0,0,.06.08.1.1l.06.05,0,0a1.54,1.54,0,0,0,.17.19,3.4,3.4,0,0,1,.26.29,0,0,0,0,1,0,0l.23.23.1.09.17.17.27.27a0,0,0,0,1,0,0h0l.28.29.35.34a.8.8,0,0,0,.17.15l.09.1c.1.09.19.19.31.28l1,.92.29.27.28.26c.16.14.29.29.44.42l.84.8c.17.16.34.33.52.48l0,0a3,3,0,0,1,.26.25l.16.13.28.29a3.59,3.59,0,0,0,.36.32l.37.34c.09.1.19.18.28.27l0,0,.06.06c.25.23.48.46.72.67l.37.34c.11-.12.24-.23.36-.34l.72-.67.06-.06,0,0,.29-.27.36-.34c.11-.11.25-.23.36-.32l.29-.29s.09-.09.15-.13l.27-.25v0c.18-.15.35-.32.52-.48s.57-.53.84-.8a5.68,5.68,0,0,0,.44-.42l.28-.26L78,132l1-.92c.1-.09.19-.19.31-.28a1,1,0,0,1,.09-.1l.18-.15.34-.34.29-.29h0s0,0,0,0l.25-.25,0,0,.17-.17.1-.09.23-.23,0,0a3.4,3.4,0,0,0,.26-.29.79.79,0,0,0,.17-.19,0,0,0,0,0,0,0l.06-.05.1-.1c.28-.28.53-.57.78-.84a3,3,0,0,1,.25-.27A27.83,27.83,0,0,1,78.2,124.34Zm-5.47,6.75-2.52-2.52,2.52-2.51,2.52,2.51Z"/><path class="cls-1" d="M82.32,17.78c-.25-.27-.49-.56-.78-.84,0,0-.06-.08-.1-.1l0-.06h0c-.06-.06-.12-.14-.17-.2a3.5,3.5,0,0,1-.27-.28,0,0,0,0,1,0,0L80.68,16,80.59,16l-.18-.18,0,0-.25-.25a0,0,0,0,1,0,0h0l-.29-.29-.34-.34a.76.76,0,0,0-.17-.15l-.1-.1c-.09-.09-.19-.19-.3-.28-.33-.31-.63-.62-1-.92-.09-.1-.19-.17-.28-.27l-.29-.26c-.15-.14-.28-.29-.44-.42l-.84-.81-.51-.47,0,0a3.08,3.08,0,0,1-.27-.25s-.09-.09-.15-.13l-.29-.29a2.74,2.74,0,0,0-.36-.32c-.11-.12-.25-.23-.36-.35l-.29-.26,0,0,0-.06c-.25-.23-.48-.46-.73-.67l-.36-.34-.36.34-.73.67-.06.06v0l-.29.26c-.11.12-.25.23-.36.35s-.25.23-.37.32l-.28.29c-.06,0-.1.09-.15.13a2.11,2.11,0,0,0-.27.25l0,0-.51.47c-.29.27-.58.54-.84.81a4.32,4.32,0,0,0-.44.42l-.29.26c-.09.1-.19.17-.28.27-.33.3-.63.61-1,.92-.09.09-.19.19-.3.28s-.06.08-.1.1-.11.11-.17.15l-.34.34-.29.29h0a0,0,0,0,0,0,0l-.25.25,0,0-.17.18L64.7,16l-.23.23,0,0a3.5,3.5,0,0,0-.27.28l-.17.2s0,0,0,0l-.06.06-.09.1c-.29.28-.53.57-.78.84l-.25.26a32.34,32.34,0,0,1,4.35,3l.42.36c3,2.65,5,5.66,5,8.85.1-3.19,2-6.2,5.06-8.85l.42-.36a31.6,31.6,0,0,1,4.34-3C82.49,18,82.4,17.85,82.32,17.78Zm-9.59,1.58-2.52-2.52,2.52-2.52,2.52,2.52Z"/><path class="cls-2" d="M75.3,0c12.92,0,25.56,4.44,36.22,11.18a48.3,48.3,0,0,0-17.43,2l-.06,0a2.86,2.86,0,0,1-.28.07l-.35.1a4.1,4.1,0,0,1-.53.15l-.84.27c-.21.08-.42.13-.63.21l-.57.19c-.44.15-.88.32-1.32.48l-.13.05h0a1.22,1.22,0,0,1-1.07-.15C85.91,12.8,75.3,4.6,75.3,0Z"/><path class="cls-1" d="M104.9,17.93c6.7-1.41,13.41-1.2,18.28,2.36a72.93,72.93,0,0,1,12,15.09C120.09,33.21,109.6,23.33,104.9,17.93Z"/><path class="cls-3" d="M130.31,72.69a3.62,3.62,0,0,0,0,.46,44.86,44.86,0,0,0,1.66,11,32.23,32.23,0,0,0,4.12,9.14,19.49,19.49,0,0,0,4.71,5.07,73.17,73.17,0,0,0,0-51.23,19.54,19.54,0,0,0-4.71,5.08A32.3,32.3,0,0,0,132,61.3a44.87,44.87,0,0,0-1.66,11A2.68,2.68,0,0,0,130.31,72.69Z"/><path class="cls-2" d="M75.3,145.4c12.92,0,25.56-4.45,36.22-11.18a48.52,48.52,0,0,1-17.43-2l-.06,0-.28-.08L93.4,132a3,3,0,0,0-.53-.15l-.84-.27c-.21-.08-.42-.14-.63-.21l-.57-.19-1.32-.48-.13-.06h0a1.26,1.26,0,0,0-1.07.16C85.91,132.6,75.3,140.8,75.3,145.4Z"/><path class="cls-1" d="M104.9,127.47c6.7,1.41,13.41,1.2,18.28-2.37a72.61,72.61,0,0,0,12-15.08C120.09,112.17,109.6,122.07,104.9,127.47Z"/><path class="cls-2" d="M86.27,120.47a82.27,82.27,0,0,0,9,4c.82.34,1.68.66,2.54,1A63.9,63.9,0,0,1,108.15,115,53.85,53.85,0,0,1,136,103.09,27,27,0,0,1,130.5,97c-4.19-6.3-6.66-14.69-6.92-23.65,0-.23,0-.44,0-.65s0-.44,0-.65c.26-8.94,2.71-17.34,6.92-23.65a27,27,0,0,1,5.48-6.1,53.69,53.69,0,0,1-27.83-11.94A64.71,64.71,0,0,1,97.85,20c-.86.31-1.7.63-2.54,1a84.88,84.88,0,0,0-9,4s-5.51,4-.59,7c8.49,2.82,15.6,10.82,15.6,20.22V93.27c0,9.4-7.13,17.41-15.6,20.22C80.76,116.48,86.27,120.47,86.27,120.47Z"/><path class="cls-1" d="M62.89,127.35c.07.08.15.18.24.27.25.27.5.55.79.84,0,0,0,.08.09.1l.06.05,0,0a1.54,1.54,0,0,0,.17.19c.09.1.19.19.27.29s0,0,0,0l.23.23.1.09.17.17,0,0,.25.25a0,0,0,0,1,0,0h0l.28.29.35.34a.8.8,0,0,0,.17.15l.09.1c.1.09.19.19.31.28l1,.92.29.27.28.26c.16.14.29.29.44.42l.84.8c.17.16.34.33.52.48l0,0a3,3,0,0,1,.26.25,1.83,1.83,0,0,1,.16.13l.28.29a3.59,3.59,0,0,0,.36.32l.37.34c.09.1.19.18.28.27l0,0,.06.06.72.66.37.35c.11-.12.24-.23.36-.35l.72-.66.06-.06,0,0,.29-.27.36-.34c.11-.11.25-.23.36-.32l.29-.29a.93.93,0,0,1,.15-.13l.27-.25v0c.18-.15.35-.32.52-.48s.57-.53.84-.8.29-.27.44-.42l.28-.26L78,132l1-.92c.1-.09.19-.19.31-.28a1,1,0,0,1,.09-.1,1.19,1.19,0,0,1,.18-.15l.34-.34.29-.29h0s0,0,0,0l.27-.27.17-.17.1-.09.23-.23,0,0a3.4,3.4,0,0,0,.26-.29,1,1,0,0,0,.17-.19,0,0,0,0,0,0,0l.06-.06.1-.09c.28-.29.53-.57.78-.84a2.05,2.05,0,0,1,.25-.27,30.83,30.83,0,0,1-4.35-3c-.14-.11-.29-.25-.42-.36-3-2.65-5-5.67-5.06-8.85-.09,3.18-2,6.2-5,8.85l-.42.36A41.92,41.92,0,0,1,62.89,127.35Zm7.32,1.21L72.73,126l2.52,2.52-2.52,2.53Z"/><path class="cls-1" d="M62.89,18a31.6,31.6,0,0,1,4.34,3c.14.11.29.25.42.36,3,2.65,5,5.67,5.06,8.85.09-3.18,2-6.2,5.05-8.85.14-.11.29-.25.42-.36a32.34,32.34,0,0,1,4.35-3c-.08-.07-.15-.17-.25-.26-.24-.27-.49-.56-.78-.84a1,1,0,0,0-.09-.1l-.06-.05,0,0c-.06-.06-.11-.14-.17-.19a3.58,3.58,0,0,1-.27-.29,0,0,0,0,1,0,0L80.64,16l-.09-.09-.17-.18,0,0-.25-.25a0,0,0,0,1,0,0h0l-.29-.29-.34-.34a1.14,1.14,0,0,0-.17-.15l-.1-.1c-.09-.09-.19-.19-.3-.28l-1-.92a3.71,3.71,0,0,1-.29-.27l-.29-.26c-.15-.14-.28-.29-.44-.42l-.83-.8-.52-.48,0,0-.27-.25c-.05,0-.09-.09-.15-.13l-.28-.29a2.83,2.83,0,0,0-.37-.32c-.11-.12-.24-.23-.36-.35l-.29-.26v0l-.06-.06c-.25-.23-.48-.46-.73-.67l-.36-.34-.36.34-.73.67,0,.06,0,0-.29.26c-.11.12-.25.23-.36.35l-.36.32-.29.29c-.06,0-.09.09-.15.13a3.08,3.08,0,0,0-.27.25l0,0c-.17.15-.34.32-.51.48s-.58.53-.84.8a5.68,5.68,0,0,0-.44.42l-.29.26c-.09.1-.19.18-.28.27l-1,.92c-.09.09-.19.19-.3.28s-.06.08-.1.1a1.22,1.22,0,0,1-.17.15l-.34.34-.29.29h0a0,0,0,0,0,0,0l-.25.25,0,0-.18.18-.09.09-.23.23,0,0c-.09.1-.19.19-.27.29a1.72,1.72,0,0,0-.17.19,0,0,0,0,0,0,0l-.05.05-.1.1c-.29.28-.53.57-.78.84C63,17.85,63,18,62.89,18Zm7.32-1.2,2.52-2.51,2.52,2.51-2.52,2.52Z"/><path class="cls-1" d="M94.55,52.11V93.29A14.55,14.55,0,0,1,80,107.84V84.38c0-2.44-.83-4.42-1.88-4.42H67.35c-1,0-1.89,2-1.89,4.42v23.46A14.54,14.54,0,0,1,50.91,93.29V52.11A14.54,14.54,0,0,1,65.46,37.56V61c0,2.44.84,4.42,1.89,4.42H78.11c1,0,1.88-2,1.88-4.42V37.56A14.57,14.57,0,0,1,94.55,52.11Z"/><path class="cls-3" d="M203.13,103.73a10.71,10.71,0,0,1,7.17,2.75.56.56,0,0,1,0,.82c-.44.47-.88.92-1.33,1.39-.23.26-.47.23-.76,0a7.88,7.88,0,0,0-5-2,7.66,7.66,0,0,0,0,15.31,10.42,10.42,0,0,0,4.43-1v-3.31h-2.89a.53.53,0,0,1-.56-.53v-1.71a.54.54,0,0,1,.56-.56h5.36a.55.55,0,0,1,.53.56c0,2.36,0,4.78,0,7.14a.71.71,0,0,1-.23.47,14.74,14.74,0,0,1-7.32,2,10.62,10.62,0,1,1,0-21.24Z"/><path class="cls-3" d="M218.27,104.59a.56.56,0,0,1,.56-.56h1.95a.58.58,0,0,1,.56.56v17.34h8a.57.57,0,0,1,.56.56v1.62a.56.56,0,0,1-.56.56h-10.5a.56.56,0,0,1-.56-.56Z"/><path class="cls-3" d="M244.82,103.73a10.62,10.62,0,1,1-10.59,10.65A10.6,10.6,0,0,1,244.82,103.73Zm0,18.29a7.67,7.67,0,1,0-7.64-7.64A7.66,7.66,0,0,0,244.82,122Z"/><path class="cls-3" d="M262.61,104.59a.56.56,0,0,1,.56-.56h6.61c3.57,0,6.13,2.36,6.13,5.45a5.66,5.66,0,0,1-3.06,4.69c1.56.65,3.68,2.1,3.68,4.81,0,3.31-2.71,5.69-6.43,5.69h-6.93a.56.56,0,0,1-.56-.56ZM270.07,122a3.15,3.15,0,0,0,3.19-3.21,3.39,3.39,0,0,0-3.63-3.1h-4V122Zm-.47-9a3,3,0,0,0,3-3.15,2.85,2.85,0,0,0-3-3h-4V113Z"/><path class="cls-3" d="M281.14,123.91l9.05-19.85a.7.7,0,0,1,.51-.33H291a.68.68,0,0,1,.5.33l9,19.85a.52.52,0,0,1-.5.76h-1.86a.68.68,0,0,1-.68-.44l-1.83-4H286c-.59,1.36-1.21,2.69-1.8,4a.74.74,0,0,1-.68.44h-1.86A.52.52,0,0,1,281.14,123.91Zm13.36-6.26-3.63-8.08h-.14l-3.6,8.08Z"/><path class="cls-3" d="M306.39,104.59A.56.56,0,0,1,307,104h1.95a.58.58,0,0,1,.56.56v17.34h8a.56.56,0,0,1,.56.56v1.62a.55.55,0,0,1-.56.56H307a.56.56,0,0,1-.56-.56Z"/><path class="cls-3" d="M335.75,104.18a.58.58,0,0,1,.53-.45h.47a.61.61,0,0,1,.5.33l6.16,15.07h.12l6.14-15.07a.56.56,0,0,1,.5-.33h.47a.59.59,0,0,1,.53.45L354.8,124a.5.5,0,0,1-.53.67h-1.92a.61.61,0,0,1-.56-.41l-2.18-13.18h-.09l-5.31,13.56a.51.51,0,0,1-.5.33h-.53a.52.52,0,0,1-.5-.33l-5.34-13.56h-.12l-2.12,13.18a.57.57,0,0,1-.53.41h-1.92a.52.52,0,0,1-.56-.67Z"/><path class="cls-3" d="M359.32,123.91l9.05-19.85a.7.7,0,0,1,.5-.33h.3a.68.68,0,0,1,.5.33l9,19.85a.52.52,0,0,1-.5.76h-1.86a.68.68,0,0,1-.68-.44l-1.83-4h-9.64c-.59,1.36-1.21,2.69-1.8,4a.74.74,0,0,1-.68.44h-1.86A.52.52,0,0,1,359.32,123.91Zm13.36-6.26-3.63-8.08h-.15l-3.59,8.08Z"/><path class="cls-3" d="M384.57,104.59a.56.56,0,0,1,.56-.56h8a6.36,6.36,0,0,1,6.43,6.31,6.54,6.54,0,0,1-4.36,6l4,7.49a.55.55,0,0,1-.5.85h-2.3a.53.53,0,0,1-.47-.26l-3.93-7.82h-4.45v7.52a.58.58,0,0,1-.56.56h-1.92a.56.56,0,0,1-.56-.56Zm8.35,9.47a3.67,3.67,0,0,0,3.6-3.66,3.61,3.61,0,0,0-3.6-3.51h-5.25v7.17Z"/><path class="cls-3" d="M407.14,104.74a.7.7,0,0,1,.71-.71h1.71a.72.72,0,0,1,.71.71v8.17l8.32-8.59a.75.75,0,0,1,.55-.29h2.22a.61.61,0,0,1,.41,1.06l-8.52,8.67,9,9.94a.62.62,0,0,1-.53,1h-2.36a.64.64,0,0,1-.53-.2l-8.58-9.68V124a.72.72,0,0,1-.71.7h-1.71a.7.7,0,0,1-.71-.7Z"/><path class="cls-3" d="M428.71,104.59a.55.55,0,0,1,.56-.56h11.79a.56.56,0,0,1,.57.56v1.65a.56.56,0,0,1-.57.56h-9.32v6h7.88a.58.58,0,0,1,.56.56V115a.57.57,0,0,1-.56.56h-7.88v6.34h9.32a.57.57,0,0,1,.57.56v1.62a.56.56,0,0,1-.57.56H429.27a.55.55,0,0,1-.56-.56Z"/><path class="cls-3" d="M451.86,106.8h-4.8a.55.55,0,0,1-.56-.56v-1.65a.55.55,0,0,1,.56-.56h12.68a.56.56,0,0,1,.56.56v1.65a.56.56,0,0,1-.56.56h-4.81v17.31a.57.57,0,0,1-.56.56h-1.95a.58.58,0,0,1-.56-.56Z"/><path class="cls-3" d="M466.44,104.59A.58.58,0,0,1,467,104H469a.58.58,0,0,1,.56.56v19.52a.58.58,0,0,1-.56.56H467a.58.58,0,0,1-.56-.56Z"/><path class="cls-3" d="M478.18,104.26a.56.56,0,0,1,.56-.53h.74l12.8,14.81h0v-14a.56.56,0,0,1,.56-.56h1.89a.58.58,0,0,1,.56.56v19.85a.56.56,0,0,1-.56.53H494l-12.8-15.22h0v14.36a.56.56,0,0,1-.56.56h-1.86a.58.58,0,0,1-.56-.56Z"/><path class="cls-3" d="M513.11,103.73a10.75,10.75,0,0,1,7.17,2.75.57.57,0,0,1,0,.82c-.45.47-.89.92-1.33,1.39-.24.26-.47.23-.77,0a7.83,7.83,0,0,0-5-2,7.66,7.66,0,0,0,0,15.31,10.3,10.3,0,0,0,4.42-1v-3.31h-2.89a.53.53,0,0,1-.56-.53v-1.71a.55.55,0,0,1,.56-.56h5.37a.56.56,0,0,1,.53.56c0,2.36,0,4.78,0,7.14a.72.72,0,0,1-.24.47,14.68,14.68,0,0,1-7.31,2,10.62,10.62,0,1,1,0-21.24Z"/><path class="cls-1" d="M192.29,35.91a10.87,10.87,0,0,1,10.87-10.86h0a1.49,1.49,0,0,1,1.49,1.49V46.38H222.9V26.54a1.49,1.49,0,0,1,1.5-1.49h10.86V69.29A10.86,10.86,0,0,1,224.4,80.15h0a1.5,1.5,0,0,1-1.5-1.5V58H204.65v20.7a1.5,1.5,0,0,1-1.49,1.5H192.29Z"/><path class="cls-1" d="M242.72,78.1l24.63-53a1.61,1.61,0,0,1,1.34-.86h.79a1.61,1.61,0,0,1,1.34.86l24.64,53a1.39,1.39,0,0,1-1.34,2.05h-8.74c-1.42,0-2.05-.47-2.75-2L279.79,72H258.38l-2.83,6.3a2.93,2.93,0,0,1-2.84,1.89h-8.66A1.39,1.39,0,0,1,242.72,78.1Zm32.35-16.84-6-13H269l-5.91,13Z"/><path class="cls-1" d="M303.91,26.54a1.49,1.49,0,0,1,1.5-1.49H329a17.12,17.12,0,0,1,17.16,17c0,7.24-4.81,13.07-11.65,15.82l10.78,20a1.49,1.49,0,0,1-1.34,2.28H333.43a1.44,1.44,0,0,1-1.26-.71L321.7,58.58h-5.43V80.15H305.41a1.5,1.5,0,0,1-1.5-1.5Zm24,22a6.31,6.31,0,0,0,6-6.29,6,6,0,0,0-6-6H316.27V48.58Z"/><path class="cls-1" d="M358.72,80.15V37.48a12.43,12.43,0,0,1,12.44-12.43h0V67.71a12.44,12.44,0,0,1-12.44,12.44Z"/><path class="cls-1" d="M383.4,72.67l3.7-6.53a2,2,0,0,1,2.68-.47c.31.15,6,4.32,11.17,4.32,3.15,0,5.44-2,5.44-4.72,0-3.3-2.76-5.82-8.11-7.95-6.77-2.68-15.27-8-15.27-17.4,0-7.79,6.06-15.66,18.18-15.66,8.19,0,14.49,4.17,16.85,5.9a2,2,0,0,1,.47,2.52l-4,6.06c-.55.87-2,1.58-2.67,1S405.36,35,400.56,35c-2.83,0-5,1.89-5,4,0,2.91,2.36,5.11,8.58,7.63s15.9,7.25,15.9,18c0,8.11-7,16.3-18.57,16.3-10.24,0-15.91-4.25-17.72-6.06C383,74.09,382.77,73.77,383.4,72.67Z"/><path class="cls-1" d="M438.87,36.62H427.61a1.5,1.5,0,0,1-1.49-1.5V26.54a1.49,1.49,0,0,1,1.49-1.49h35a1.49,1.49,0,0,1,1.49,1.49v8.58a1.5,1.5,0,0,1-1.49,1.5H451.31V80.15H438.87Z"/></g></g></svg>