<svg xmlns="http://www.w3.org/2000/svg" viewBox="0 0 145.42 145.4"><title>LogoBGMenu</title><g id="Layer_2" data-name="Layer 2"><g id="Layer_1-2" data-name="Layer 1"><path d="M70.12,0C57.21,0,44.56,4.44,33.9,11.18a48.3,48.3,0,0,1,17.44,2h0c.1,0,.19.06.29.07l.34.1a5.44,5.44,0,0,0,.54.15l.84.27L54,14l.57.19c.44.15.87.32,1.31.48l.14.05h0a1.23,1.23,0,0,0,1.07-.15C59.52,12.8,70.12,4.6,70.12,0Z"/><path d="M40.54,17.93c-6.69-1.41-13.41-1.2-18.27,2.36a73.17,73.17,0,0,0-12,15.09C25.36,33.21,35.83,23.33,40.54,17.93Z"/><path d="M15.13,72.69v.46a45.46,45.46,0,0,1-1.66,11,33,33,0,0,1-4.12,9.14,19.64,19.64,0,0,1-4.72,5.07,73.21,73.21,0,0,1,0-51.23,19.68,19.68,0,0,1,4.72,5.08,32.83,32.83,0,0,1,4.12,9.13,45.46,45.46,0,0,1,1.66,11Z"/><path d="M70.12,145.4c-12.91,0-25.56-4.45-36.22-11.18a48.52,48.52,0,0,0,17.44-2h0l.29-.08a.49.49,0,0,0,.34-.09,2.72,2.72,0,0,1,.54-.15l.84-.27.63-.21.57-.19c.44-.15.87-.33,1.31-.48l.14-.06h0a1.27,1.27,0,0,1,1.07.16C59.52,132.6,70.12,140.8,70.12,145.4Z"/><path d="M40.54,127.47c-6.69,1.41-13.41,1.2-18.27-2.37a72.52,72.52,0,0,1-12-15.08C25.36,112.17,35.83,122.07,40.54,127.47Z"/><path d="M59.18,120.47a82.15,82.15,0,0,1-9,4c-.82.34-1.67.66-2.53,1A64.87,64.87,0,0,0,37.3,115,53.89,53.89,0,0,0,9.47,103.09,27.11,27.11,0,0,0,15,97c4.2-6.3,6.66-14.69,6.93-23.65v-1.3C21.6,63.1,19.16,54.7,15,48.39a27.16,27.16,0,0,0-5.47-6.1A53.74,53.74,0,0,0,37.3,30.35,65.89,65.89,0,0,0,47.6,20c.86.31,1.7.63,2.53,1a85,85,0,0,1,9,4s5.51,4,.59,7c-8.49,2.82-15.61,10.82-15.61,20.22V93.27c0,9.4,7.14,17.41,15.61,20.22C64.69,116.48,59.18,120.47,59.18,120.47Z"/><path d="M78.19,124.34c-.13-.11-.28-.25-.42-.36-3-2.65-5-5.67-5-8.85-.1,3.18-2,6.2-5.06,8.85-.13.11-.28.25-.42.36a30.84,30.84,0,0,1-4.35,3l.25.27c.25.27.5.55.78.84a.45.45,0,0,0,.1.1l.06,0h0a1.54,1.54,0,0,0,.17.19,3.58,3.58,0,0,1,.26.29h0l.23.23.1.09.17.17.27.27h0l.28.29.35.34a.8.8,0,0,0,.17.15l.09.1c.1.09.19.19.31.28l1,.92.29.27.28.26c.16.14.29.29.44.42l.84.8c.17.16.34.33.52.48h0a3.07,3.07,0,0,1,.26.25l.16.13.28.29a3.73,3.73,0,0,0,.36.32l.37.34c.09.1.19.18.28.27h0l.06.06c.25.23.48.46.72.67l.37.34c.11-.12.24-.23.36-.34l.72-.67.06-.06h0l.29-.27.36-.34c.11-.11.25-.23.36-.32l.29-.29a1.34,1.34,0,0,1,.15-.13l.27-.25h0c.18-.15.35-.32.52-.48s.57-.53.84-.8a5.77,5.77,0,0,0,.44-.42l.28-.26L78,132l1-.92c.1-.09.19-.19.31-.28l.09-.1.18-.15.34-.34.29-.29h0l.25-.25h0l.17-.17.1-.09.23-.23h0a3.58,3.58,0,0,0,.26-.29.77.77,0,0,0,.17-.19h0l.06,0,.1-.1c.28-.28.53-.57.78-.84a2.16,2.16,0,0,1,.25-.27A28,28,0,0,1,78.19,124.34Zm-5.47,6.75-2.52-2.52,2.52-2.51,2.52,2.51Z"/><path d="M82.31,17.78c-.25-.27-.49-.56-.78-.84a.45.45,0,0,0-.1-.1v-.06h0c-.06-.06-.12-.14-.17-.2A2.37,2.37,0,0,1,81,16.3h0l-.32-.3h-.09l-.18-.18h0l-.25-.25h0l-.29-.29-.34-.34a.8.8,0,0,0-.17-.15l-.1-.1c-.09-.09-.19-.19-.3-.28-.33-.31-.63-.62-1-.92-.09-.1-.19-.17-.28-.27L77.38,13c-.15-.14-.28-.29-.44-.42l-.84-.81-.51-.47h0L75.32,11a1.34,1.34,0,0,0-.15-.13l-.29-.29a2.74,2.74,0,0,0-.36-.32c-.11-.12-.25-.23-.36-.35l-.29-.26h0V9.6c-.25-.23-.48-.46-.73-.67l-.36-.34-.36.34-.73.67-.06.06h0l-.29.26c-.11.12-.25.23-.36.35a2.73,2.73,0,0,1-.37.32l-.28.29c-.06,0-.1.09-.15.13a2.16,2.16,0,0,0-.27.25h0l-.51.47c-.29.27-.58.54-.84.81a4.37,4.37,0,0,0-.44.42l-.29.26c-.09.1-.19.17-.28.27-.33.3-.63.61-1,.92-.09.09-.19.19-.3.28s-.06.08-.1.1-.11.11-.17.15l-.34.34-.29.29h0l-.25.25h0l-.17.18h-.24l-.23.23h0a2.37,2.37,0,0,0-.27.28l-.17.2h0l-.06.06-.09.1c-.29.28-.53.57-.78.84l-.25.26a32.33,32.33,0,0,1,4.35,3l.42.36c3,2.65,5,5.66,5,8.85.1-3.19,2-6.2,5.06-8.85l.42-.36a31.61,31.61,0,0,1,4.34-3S82.39,17.85,82.31,17.78Zm-9.59,1.58L70.2,16.84l2.52-2.52,2.52,2.52Z"/><path d="M75.29,0c12.92,0,25.56,4.44,36.22,11.18a48.27,48.27,0,0,0-17.43,2H94l-.28.07-.35.1a4.61,4.61,0,0,1-.53.15l-.84.27c-.21.08-.42.13-.63.21l-.57.19-1.32.48-.13,0h0a1.23,1.23,0,0,1-1.07-.15C85.9,12.8,75.29,4.6,75.29,0Z"/><path d="M104.89,17.93c6.7-1.41,13.41-1.2,18.28,2.36a72.84,72.84,0,0,1,12,15.09C120.08,33.21,109.59,23.33,104.89,17.93Z"/><path d="M130.3,72.69a3.53,3.53,0,0,0,0,.46,44.5,44.5,0,0,0,1.66,11,32.33,32.33,0,0,0,4.12,9.14,19.6,19.6,0,0,0,4.71,5.07,73.21,73.21,0,0,0,0-51.23,19.47,19.47,0,0,0-4.71,5.08A32.08,32.08,0,0,0,132,61.3a44.5,44.5,0,0,0-1.66,11A2.56,2.56,0,0,0,130.3,72.69Z"/><path d="M75.29,145.4c12.92,0,25.56-4.45,36.22-11.18a48.49,48.49,0,0,1-17.43-2H94l-.28-.08-.35-.14a2.46,2.46,0,0,0-.53-.15l-.84-.27c-.21-.08-.42-.14-.63-.21l-.57-.19-1.32-.48-.13-.06h0a1.27,1.27,0,0,0-1.07.16C85.9,132.6,75.29,140.8,75.29,145.4Z"/><path d="M104.89,127.47c6.7,1.41,13.41,1.2,18.28-2.37a72.52,72.52,0,0,0,12-15.08C120.08,112.17,109.59,122.07,104.89,127.47Z"/><path d="M86.26,120.47a82.15,82.15,0,0,0,9,4c.82.34,1.68.66,2.54,1A63.61,63.61,0,0,1,108.14,115,53.84,53.84,0,0,1,136,103.09a27,27,0,0,1-5.5-6.09c-4.19-6.3-6.66-14.69-6.92-23.65v-1.3c.26-8.94,2.71-17.34,6.92-23.65A27,27,0,0,1,136,42.3a53.7,53.7,0,0,1-27.83-11.94A64.7,64.7,0,0,1,97.84,20c-.86.31-1.7.63-2.54,1a85,85,0,0,0-9,4s-5.51,4-.59,7c8.49,2.82,15.6,10.82,15.6,20.22V93.27c0,9.4-7.13,17.41-15.6,20.22C80.75,116.48,86.26,120.47,86.26,120.47Z"/><path d="M62.88,127.35c.07.08.15.18.24.27.25.27.5.55.79.84a.11.11,0,0,0,.09.1l.06.05h0a1.54,1.54,0,0,0,.17.19c.09.1.19.19.27.29h0l.23.23.1.09.17.17h0l.25.25h0l.28.29.35.34a.8.8,0,0,0,.17.15l.09.1c.1.09.19.19.31.28l1,.92.29.27.28.26c.16.14.29.29.44.42l.84.8c.17.16.34.33.52.48h0a3.07,3.07,0,0,1,.26.25l.16.13.28.29a3.73,3.73,0,0,0,.36.32l.37.34c.09.1.19.18.28.27h0l.06.06.72.66.37.35c.11-.12.24-.23.36-.35l.72-.66.06-.06h0l.29-.27.36-.34c.11-.11.25-.23.36-.32l.29-.29.15-.13.27-.25h0c.18-.15.35-.32.52-.48s.57-.53.84-.8.29-.27.44-.42l.28-.26L78,132l1-.92c.1-.09.19-.19.31-.28l.09-.1a.84.84,0,0,1,.18-.15l.34-.34.29-.29h0l.27-.27.17-.17.1-.09.23-.23h0a3.58,3.58,0,0,0,.26-.29,1.54,1.54,0,0,0,.17-.19h0l.06-.06.1-.09c.28-.29.53-.57.78-.84a2.16,2.16,0,0,1,.25-.27,30.84,30.84,0,0,1-4.35-3c-.14-.11-.29-.25-.42-.36-3-2.65-5-5.67-5.06-8.85-.09,3.18-2,6.2-5,8.85l-.42.36A41.28,41.28,0,0,1,62.88,127.35Zm7.32,1.21L72.72,126l2.52,2.52-2.52,2.53Z"/><path d="M62.88,18a31.61,31.61,0,0,1,4.34,3c.14.11.29.25.42.36,3,2.65,5,5.67,5.06,8.85.09-3.18,2-6.2,5-8.85.14-.11.29-.25.42-.36a32.33,32.33,0,0,1,4.35-3c-.08-.07-.15-.17-.25-.26-.24-.27-.49-.56-.78-.84l-.09-.1-.06-.05h0c-.06-.06-.11-.14-.17-.19a2.44,2.44,0,0,1-.27-.29h0L80.63,16l-.09-.09-.17-.18h0l-.25-.25h0l-.29-.29-.34-.34a.8.8,0,0,0-.17-.15l-.1-.1c-.09-.09-.19-.19-.3-.28l-1-.92a2.44,2.44,0,0,1-.29-.27l-.29-.26c-.15-.14-.28-.29-.44-.42l-.83-.8-.52-.48h0l-.27-.25s-.09-.09-.15-.13l-.28-.29a2.83,2.83,0,0,0-.37-.32c-.11-.12-.24-.23-.36-.35l-.29-.26h0l-.06-.06c-.25-.23-.48-.46-.73-.67l-.36-.34-.36.34-.73.67v.06h0l-.29.26c-.11.12-.25.23-.36.35l-.36.32-.29.29c-.06,0-.09.09-.15.13l-.27.25h0l-.51.48c-.17.16-.58.53-.84.8a5.77,5.77,0,0,0-.44.42l-.29.26c-.09.1-.19.18-.28.27l-1,.92c-.09.09-.19.19-.3.28s-.06.08-.1.1a.8.8,0,0,1-.17.15l-.34.34-.29.29h0l-.25.25h0l-.18.18-.09.09-.23.23h0c-.09.1-.19.19-.27.29a1.54,1.54,0,0,0-.17.19h0l-.05.05-.1.1c-.29.28-.53.57-.78.84S63,18,62.88,18Zm7.32-1.2,2.52-2.51,2.52,2.51-2.52,2.52Z"/><path d="M94.54,52.11V93.29A14.54,14.54,0,0,1,80,107.84V84.38c0-2.44-.83-4.42-1.88-4.42H67.34c-1,0-1.89,2-1.89,4.42v23.46A14.54,14.54,0,0,1,50.9,93.31V52.11A14.54,14.54,0,0,1,65.43,37.56h0V61c0,2.44.84,4.42,1.89,4.42H78.1c1,0,1.88-2,1.88-4.42V37.56A14.57,14.57,0,0,1,94.54,52.11Z"/></g></g></svg>