<?xml version="1.0" encoding="UTF-8" standalone="no"?><!DOCTYPE svg PUBLIC "-//W3C//DTD SVG 1.1//EN" "http://www.w3.org/Graphics/SVG/1.1/DTD/svg11.dtd"><svg width="100%" height="100%" viewBox="0 0 40 67" version="1.1" xmlns="http://www.w3.org/2000/svg" xmlns:xlink="http://www.w3.org/1999/xlink" xml:space="preserve" xmlns:serif="http://www.serif.com/" style="fill-rule:evenodd;clip-rule:evenodd;stroke-linejoin:round;stroke-miterlimit:2;"><g><path d="M0.175,47.749c0.151,0.152 0.303,0.341 0.492,0.531c0.492,0.53 0.985,1.098 1.553,1.666c0.076,0.076 0.114,0.152 0.19,0.19l0.151,0.151c0.114,0.114 0.227,0.266 0.341,0.379c0.189,0.19 0.379,0.379 0.53,0.569c0.038,0 0.038,0.037 0.038,0.037l2.842,2.842c0.113,0.113 0.227,0.227 0.34,0.303c0.076,0.075 0.114,0.113 0.19,0.189c0.189,0.189 0.379,0.379 0.606,0.568c0.644,0.606 1.25,1.213 1.894,1.819c0.19,0.189 0.379,0.341 0.568,0.53c0.19,0.189 0.379,0.341 0.569,0.53c0.303,0.266 0.568,0.569 0.871,0.834c0.568,0.53 1.136,1.061 1.667,1.591c0.341,0.303 0.682,0.644 1.023,0.947l0.037,0.038c0.19,0.151 0.341,0.303 0.531,0.492c0.114,0.076 0.189,0.19 0.303,0.266c0.189,0.189 0.379,0.378 0.568,0.568c0.227,0.227 0.455,0.454 0.72,0.644c0.227,0.227 0.492,0.454 0.72,0.682c0.189,0.189 0.379,0.341 0.568,0.53l0.151,0.152c0.493,0.454 0.948,0.909 1.44,1.325c0.227,0.228 0.492,0.455 0.72,0.682c0.227,-0.227 0.492,-0.454 0.72,-0.682c0.492,-0.454 0.947,-0.871 1.439,-1.325c0.038,-0.038 0.076,-0.076 0.114,-0.114l0.038,-0.038c0.189,-0.189 0.378,-0.341 0.568,-0.53c0.227,-0.228 0.492,-0.455 0.72,-0.682c0.227,-0.228 0.492,-0.455 0.719,-0.644c0.19,-0.19 0.379,-0.379 0.569,-0.568c0.113,-0.076 0.189,-0.19 0.303,-0.266c0.189,-0.151 0.341,-0.303 0.53,-0.492l0.038,-0.038c0.341,-0.303 0.682,-0.644 1.023,-0.947c0.568,-0.53 1.136,-1.061 1.667,-1.591c0.303,-0.265 0.568,-0.531 0.871,-0.834c0.189,-0.189 0.379,-0.341 0.568,-0.53c0.19,-0.189 0.379,-0.341 0.568,-0.53c0.644,-0.606 1.251,-1.213 1.895,-1.819c0.189,-0.189 0.378,-0.379 0.606,-0.568c0.075,-0.076 0.113,-0.151 0.189,-0.189c0.114,-0.114 0.227,-0.228 0.341,-0.303l1.288,-1.288l0.53,-0.531l0.985,-0.985l0.038,-0.038c0.19,-0.189 0.379,-0.378 0.531,-0.568c0.113,-0.114 0.227,-0.227 0.341,-0.379c0.037,0 0.037,-0.038 0.037,-0.038l0.114,-0.113c0.076,-0.076 0.152,-0.152 0.19,-0.19c0.568,-0.568 1.06,-1.136 1.553,-1.666c0.151,-0.19 0.303,-0.341 0.492,-0.531c-3.182,-1.856 -6.099,-3.864 -8.637,-5.985c-0.265,-0.228 -0.568,-0.493 -0.834,-0.72c-6.023,-5.266 -9.849,-11.251 -10.038,-17.578c-0.19,6.327 -4.016,12.312 -10.039,17.578c-0.266,0.227 -0.569,0.492 -0.834,0.72c-2.727,2.083 -5.644,4.091 -8.826,5.947Zm14.547,2.387l5,-5.001l5.001,5.001l-5.001,5.038l-5,-5.038Z" style="fill:#bb2a3c;fill-rule:nonzero;"/><circle cx="19.338" cy="3.5" r="3.5" style="fill:#bb2a3c;"/></g></svg>